<svg width="2717" height="673" xmlns="http://www.w3.org/2000/svg" xmlns:xlink="http://www.w3.org/1999/xlink" xml:space="preserve" overflow="hidden"><g transform="translate(-124 -762)"><path d="M2.40173-6.44184 1068.5 391.035 1063.7 403.919-2.40173 6.44184ZM-7.20518 19.3255C-17.8784 15.3462-23.3048 3.46802-19.3255-7.20518-15.3462-17.8784-3.46802-23.3048 7.20518-19.3255 17.8784-15.3462 23.3048-3.46802 19.3255 7.20518 15.3462 17.8784 3.46802 23.3048-7.20518 19.3255ZM1071.67 362.865 1124.08 419.092 1047.65 427.284Z" transform="matrix(1 0 0 -1 273 1252.09)"/><path d="M271.021 1242.12 1334.88 1245.41 1334.84 1259.16 270.979 1255.87ZM270.936 1269.62C259.545 1269.59 250.34 1260.33 250.375 1248.94 250.41 1237.55 259.673 1228.34 271.064 1228.38 282.454 1228.41 291.66 1237.67 291.625 1249.06 291.59 1260.45 282.327 1269.66 270.936 1269.62ZM1328.09 1217.89 1396.74 1252.47 1327.88 1286.64Z"/><path d="M1079 865.3 1071.25 901.113C1073.8 901.279 1076.92 901.363 1080.63 901.363 1086.96 901.363 1091.72 900.644 1094.91 899.206 1098.1 897.769 1100.84 895.217 1103.13 891.55 1105.42 887.883 1106.57 883.363 1106.57 877.988 1106.57 873.779 1105.18 870.613 1102.41 868.488 1099.64 866.363 1095.5 865.3 1090 865.3ZM1097.5 827.05C1093.88 827.05 1090.5 827.113 1087.38 827.238L1080.32 859.8 1089.13 859.8C1094.05 859.8 1097.95 859.404 1100.85 858.613 1103.74 857.821 1106.3 856.404 1108.5 854.363 1110.71 852.321 1112.32 850.081 1113.32 847.644 1114.32 845.206 1114.82 842.383 1114.82 839.175 1114.82 837.383 1114.5 835.706 1113.88 834.144 1113.25 832.581 1112.18 831.248 1110.66 830.144 1109.14 829.04 1107.39 828.248 1105.41 827.769 1103.43 827.29 1100.8 827.05 1097.5 827.05ZM1069.44 821.55 1100.38 821.55C1106.63 821.55 1111.64 822.206 1115.41 823.519 1119.18 824.831 1121.95 826.758 1123.72 829.3 1125.49 831.842 1126.38 835.029 1126.38 838.863 1126.38 844.321 1124.71 849.081 1121.38 853.144 1118.05 857.206 1113.09 860.321 1106.5 862.488L1106.38 863.175C1110.25 864.717 1113.23 866.915 1115.32 869.769 1117.4 872.623 1118.44 875.863 1118.44 879.488 1118.44 885.029 1117.17 889.769 1114.63 893.706 1112.09 897.644 1108.28 900.821 1103.19 903.238 1098.11 905.654 1090.67 906.863 1080.88 906.863L1053.07 906.863 1053.75 903.8C1055.34 903.55 1056.53 903.144 1057.32 902.581 1058.11 902.019 1058.78 901.238 1059.32 900.238 1059.86 899.238 1060.36 898.019 1060.82 896.581 1061.28 895.144 1061.96 892.363 1062.88 888.238L1073.5 840.113C1074.42 835.946 1074.88 832.654 1074.88 830.238 1074.88 828.196 1074.4 826.779 1073.44 825.988 1072.48 825.196 1070.92 824.738 1068.75 824.613Z" fill-rule="evenodd"/><text fill="#000000" fill-opacity="0" font-family="Arial,Arial_MSFontService,sans-serif" font-size="85.3125" x="1053.07" y="896.199">𝐵</text><path d="M209.628 1230.5 187.378 1269.87 211.815 1269.87 210.753 1249.75C210.628 1247 210.523 1243.56 210.44 1239.43 210.357 1235.31 210.315 1232.33 210.315 1230.5ZM210.003 1217.31 219.44 1217.31 223.94 1287C224.148 1290.29 224.523 1292.86 225.065 1294.71 225.607 1296.57 226.346 1297.94 227.284 1298.84 228.221 1299.74 229.586 1300.31 231.378 1300.56L230.69 1303.62 204.69 1303.62 205.378 1300.56C207.836 1300.35 209.669 1299.39 210.878 1297.68 212.086 1295.97 212.69 1292.97 212.69 1288.68 212.69 1287.06 212.628 1285.29 212.503 1283.37L212.065 1275.31 184.565 1275.31 181.128 1281.43C179.503 1284.31 178.315 1286.78 177.565 1288.84 176.815 1290.9 176.44 1292.72 176.44 1294.31 176.44 1297.81 178.544 1299.89 182.753 1300.56L182.065 1303.62 156.503 1303.62 157.19 1300.56C158.482 1300.39 159.701 1299.88 160.846 1299.03 161.992 1298.17 163.211 1296.88 164.503 1295.15 165.794 1293.42 167.607 1290.56 169.94 1286.56Z" fill-rule="evenodd"/><text fill="#000000" fill-opacity="0" font-family="Arial,Arial_MSFontService,sans-serif" font-size="86.3125" x="156.503" y="1292.83">𝐴</text><path d="M1233.09 1292.81C1236.88 1292.81 1240.39 1293.04 1243.62 1293.5 1246.85 1293.96 1250.44 1294.79 1254.4 1296L1250.65 1312.94 1244.65 1312.94C1244.32 1307.81 1243.2 1304.11 1241.31 1301.84 1239.41 1299.57 1236.36 1298.44 1232.15 1298.44 1226.4 1298.44 1221.06 1301.31 1216.12 1307.06 1211.18 1312.81 1207.28 1320.4 1204.4 1329.84 1201.53 1339.28 1200.09 1348.04 1200.09 1356.12 1200.09 1362.46 1201.21 1367.12 1203.46 1370.12 1205.71 1373.12 1209.17 1374.62 1213.84 1374.62 1216.96 1374.62 1219.69 1374.15 1222.03 1373.22 1224.36 1372.28 1226.55 1370.7 1228.59 1368.47 1230.63 1366.24 1232.65 1363.12 1234.65 1359.12L1240.65 1359.12 1236.84 1376.87C1229.05 1379.04 1220.88 1380.12 1212.34 1380.12 1204.51 1380.12 1198.55 1377.87 1194.46 1373.37 1190.38 1368.87 1188.34 1362.29 1188.34 1353.62 1188.34 1347.5 1189.43 1340.44 1191.62 1332.44 1193.81 1324.44 1196.9 1317.41 1200.9 1311.37 1204.9 1305.33 1209.63 1300.73 1215.09 1297.56 1220.55 1294.39 1226.55 1292.81 1233.09 1292.81Z" fill-rule="evenodd"/><text fill="#000000" fill-opacity="0" font-family="Arial,Arial_MSFontService,sans-serif" font-size="87.3125" x="1188.34" y="1369.21">𝐶</text><path d="M659.263 1018.99C719.862 1110.85 740.212 1219.36 716.588 1324.63" stroke="#000000" stroke-width="10.3125" stroke-linejoin="round" stroke-miterlimit="10" fill="none" fill-rule="evenodd"/><path d="M599.907 1155.38C661.743 1075.97 744.615 1064.35 818.882 1124.68" stroke="#000000" stroke-width="10.3125" stroke-linejoin="round" stroke-miterlimit="10" fill="none" fill-rule="evenodd"/><path d="M1644.02 1241.13 2707.88 1244.41 2707.84 1258.16 1643.98 1254.88ZM1643.94 1268.62C1632.55 1268.59 1623.34 1259.33 1623.38 1247.94 1623.41 1236.55 1632.67 1227.34 1644.06 1227.38 1655.45 1227.41 1664.66 1236.67 1664.62 1248.06 1664.59 1259.45 1655.33 1268.66 1643.94 1268.62ZM2701.09 1216.89 2769.74 1251.47 2700.88 1285.64Z"/><path d="M2076.36 965.702 2101.36 965.702 2100.67 968.765C2099.09 969.098 2097.95 969.473 2097.26 969.89 2096.58 970.306 2095.96 970.931 2095.42 971.765 2094.88 972.598 2094.31 973.9 2093.73 975.671 2093.15 977.442 2092.42 980.327 2091.54 984.327L2087.29 1003.45 2120.86 1003.45 2125.11 984.265C2125.48 982.556 2125.8 980.733 2126.08 978.796 2126.35 976.858 2126.48 975.327 2126.48 974.202 2126.48 972.244 2125.99 970.879 2125.01 970.108 2124.03 969.337 2122.48 968.89 2120.36 968.765L2121.04 965.702 2146.04 965.702 2145.36 968.765C2143.77 969.098 2142.64 969.473 2141.95 969.89 2141.26 970.306 2140.65 970.931 2140.11 971.765 2139.56 972.598 2139 973.9 2138.42 975.671 2137.84 977.442 2137.11 980.327 2136.23 984.327L2125.54 1032.83C2125 1035.29 2124.65 1037.23 2124.48 1038.67 2124.31 1040.11 2124.23 1041.41 2124.23 1042.58 2124.23 1044.45 2124.7 1045.77 2125.64 1046.55 2126.58 1047.32 2128.15 1047.79 2130.36 1047.95L2129.67 1051.01 2104.67 1051.01 2105.36 1047.95C2106.94 1047.7 2108.13 1047.3 2108.92 1046.73 2109.71 1046.17 2110.38 1045.39 2110.92 1044.39 2111.46 1043.39 2111.96 1042.17 2112.42 1040.73 2112.88 1039.3 2113.56 1036.51 2114.48 1032.39L2119.61 1009.2 2086.04 1009.2 2080.86 1032.83C2080.4 1034.91 2080.06 1036.63 2079.86 1037.98 2079.65 1039.34 2079.54 1040.87 2079.54 1042.58 2079.54 1044.37 2079.96 1045.66 2080.79 1046.45 2081.63 1047.24 2083.25 1047.74 2085.67 1047.95L2084.98 1051.01 2059.98 1051.01 2060.67 1047.95C2062.25 1047.7 2063.44 1047.3 2064.23 1046.73 2065.02 1046.17 2065.69 1045.39 2066.23 1044.39 2066.77 1043.39 2067.27 1042.17 2067.73 1040.73 2068.19 1039.3 2068.88 1036.51 2069.79 1032.39L2080.42 984.265C2080.79 982.556 2081.12 980.733 2081.39 978.796 2081.66 976.858 2081.79 975.327 2081.79 974.202 2081.79 972.244 2081.3 970.879 2080.33 970.108 2079.35 969.337 2077.79 968.89 2075.67 968.765Z" fill-rule="evenodd"/><text fill="#000000" fill-opacity="0" font-family="Arial,Arial_MSFontService,sans-serif" font-size="85.3125" x="2059.98" y="1040.35">𝐻</text><path d="M1550.52 1217.39 1606.89 1217.39 1602.58 1236.58 1596.58 1236.58C1596.41 1233.37 1596.15 1230.84 1595.8 1228.98 1595.44 1227.13 1594.94 1225.8 1594.3 1224.98 1593.65 1224.17 1592.87 1223.62 1591.95 1223.33 1591.04 1223.04 1589.66 1222.89 1587.83 1222.89L1568.58 1222.89 1561.14 1256.89 1572.83 1256.89C1574.66 1256.89 1576.18 1256.64 1577.39 1256.14 1578.6 1255.64 1579.72 1254.73 1580.77 1253.42 1581.81 1252.11 1583.1 1249.87 1584.64 1246.7L1590.33 1246.7 1584.27 1273.08 1578.77 1273.08C1578.77 1268.87 1578.63 1266.23 1578.36 1265.17 1578.09 1264.11 1577.57 1263.38 1576.8 1262.98 1576.03 1262.59 1574.49 1262.39 1572.2 1262.39L1559.95 1262.39 1555.02 1284.52C1554.14 1288.43 1553.7 1291.68 1553.7 1294.27 1553.7 1295.56 1553.91 1296.57 1554.33 1297.3 1554.74 1298.03 1555.37 1298.56 1556.2 1298.89 1557.04 1299.22 1558.47 1299.47 1560.52 1299.64L1559.83 1302.7 1534.14 1302.7 1534.83 1299.64C1536.41 1299.39 1537.6 1298.98 1538.39 1298.42 1539.18 1297.86 1539.85 1297.08 1540.39 1296.08 1540.93 1295.08 1541.43 1293.86 1541.89 1292.42 1542.35 1290.98 1543.04 1288.2 1543.95 1284.08L1554.58 1235.95C1555.49 1231.79 1555.95 1228.49 1555.95 1226.08 1555.95 1224.04 1555.47 1222.62 1554.52 1221.83 1553.56 1221.04 1551.99 1220.58 1549.83 1220.45Z" fill-rule="evenodd"/><text fill="#000000" fill-opacity="0" font-family="Arial,Arial_MSFontService,sans-serif" font-size="85.3125" x="1534.14" y="1292.04">𝐹</text><path d="M2616.93 1296.94C2620.89 1296.94 2624.52 1297.18 2627.81 1297.66 2631.1 1298.13 2634.71 1299 2638.62 1300.25L2634.81 1317.06 2628.81 1317.06C2628.43 1311.85 2627.29 1308.11 2625.37 1305.84 2623.46 1303.57 2620.33 1302.44 2616 1302.44 2612.5 1302.44 2609.23 1303.33 2606.18 1305.12 2603.14 1306.92 2600.26 1309.59 2597.53 1313.16 2594.8 1316.72 2592.34 1321.21 2590.15 1326.62 2587.97 1332.04 2586.27 1337.69 2585.06 1343.56 2583.85 1349.44 2583.25 1354.96 2583.25 1360.12 2583.25 1366.62 2584.36 1371.36 2586.59 1374.34 2588.82 1377.32 2592.31 1378.81 2597.06 1378.81 2598.77 1378.81 2600.52 1378.61 2602.31 1378.22 2604.1 1377.82 2605.78 1377.15 2607.34 1376.19 2608.9 1375.23 2610.29 1373.94 2611.5 1372.31 2612.71 1370.69 2613.58 1368.65 2614.12 1366.19L2614.81 1363.25C2615.73 1359.33 2616.18 1355.98 2616.18 1353.19 2616.18 1351.23 2615.69 1349.86 2614.72 1349.09 2613.74 1348.32 2612.18 1347.87 2610.06 1347.75L2610.75 1344.69 2635.75 1344.69 2635.06 1347.75C2633.48 1348.08 2632.33 1348.46 2631.62 1348.87 2630.91 1349.29 2630.28 1349.93 2629.72 1350.78 2629.15 1351.63 2628.6 1352.94 2628.06 1354.69 2627.52 1356.44 2626.81 1359.31 2625.93 1363.31L2621.62 1382.94 2616.68 1384.31 2613.43 1379.37C2609.1 1381.42 2605.68 1382.74 2603.18 1383.34 2600.68 1383.95 2598.14 1384.25 2595.56 1384.25 2587.73 1384.25 2581.77 1382 2577.68 1377.5 2573.6 1373 2571.56 1366.42 2571.56 1357.75 2571.56 1351.54 2572.6 1344.57 2574.68 1336.84 2576.77 1329.11 2579.8 1322.21 2583.78 1316.12 2587.76 1310.04 2592.57 1305.32 2598.22 1301.97 2603.86 1298.61 2610.1 1296.94 2616.93 1296.94Z" fill-rule="evenodd"/><text fill="#000000" fill-opacity="0" font-family="Arial,Arial_MSFontService,sans-serif" font-size="87.375" x="2571.56" y="1373.39">𝐺</text><path d="M2032.53 1018.07C2093.12 1109.94 2113.47 1218.44 2089.85 1323.71" stroke="#000000" stroke-width="10.3125" stroke-linejoin="round" stroke-miterlimit="10" fill="none" fill-rule="evenodd"/><path d="M1973.17 1154.46C2035.01 1075.06 2117.88 1063.44 2192.15 1123.76" stroke="#000000" stroke-width="10.3125" stroke-linejoin="round" stroke-miterlimit="10" fill="none" fill-rule="evenodd"/></g></svg>