<svg width="1870" height="912" xmlns="http://www.w3.org/2000/svg" xmlns:xlink="http://www.w3.org/1999/xlink" xml:space="preserve" overflow="hidden"><g transform="translate(-561 -635)"><path d="M1035.57 1387.26C1012.76 1344.26 1034.53 1296.29 1061.17 1251.26 1087.82 1206.24 1132.62 1160.53 1195.45 1117.09 1258.29 1073.66 1321.91 1091.9 1402.03 1057.75 1482.15 1023.6 1599.9 906.721 1676.18 912.186 1752.46 917.65 1839.58 993.174 1859.74 1090.54 1897.97 1149.2 1848.44 1253.29 1776.46 1308.03 1668.33 1362.77 1640.39 1308.1 1564.71 1357.05 1489.04 1406 1535.88 1501.54 1451.52 1526.91 1367.17 1552.28 1267.36 1537.72 1198.03 1509.28 1128.71 1480.84 1058.38 1430.26 1035.57 1387.26Z" stroke="#1C334E" stroke-width="13.75" stroke-linejoin="round" stroke-miterlimit="10" fill="none" fill-rule="evenodd"/><path d="M1939.5 1006C1939.5 996.888 1946.89 989.5 1956 989.5 1965.11 989.5 1972.5 996.888 1972.5 1006 1972.5 1015.11 1965.11 1022.5 1956 1022.5 1946.89 1022.5 1939.5 1015.11 1939.5 1006Z" stroke="#002060" stroke-width="9.16667" stroke-linejoin="round" stroke-miterlimit="10" fill="#002060" fill-rule="evenodd"/><text font-family="Calibri,Calibri_MSFontService,sans-serif" font-weight="400" font-size="83" transform="matrix(1 0 0 1 1844.22 962)">Soccer Field</text><text font-family="Calibri,Calibri_MSFontService,sans-serif" font-weight="400" font-size="147" transform="matrix(1 0 0 1 1305.92 1242)">Pond</text><path d="M1356.5 776C1356.5 766.887 1363.89 759.5 1373 759.5 1382.11 759.5 1389.5 766.887 1389.5 776 1389.5 785.112 1382.11 792.5 1373 792.5 1363.89 792.5 1356.5 785.112 1356.5 776Z" stroke="#002060" stroke-width="9.16667" stroke-linejoin="round" stroke-miterlimit="10" fill="#002060" fill-rule="evenodd"/><text font-family="Calibri,Calibri_MSFontService,sans-serif" font-weight="400" font-size="83" transform="matrix(1 0 0 1 1238.37 737)">Water Fountains</text><path d="M955.5 1486C955.5 1476.89 962.887 1469.5 972 1469.5 981.113 1469.5 988.5 1476.89 988.5 1486 988.5 1495.11 981.113 1502.5 972 1502.5 962.887 1502.5 955.5 1495.11 955.5 1486Z" stroke="#002060" stroke-width="9.16667" stroke-linejoin="round" stroke-miterlimit="10" fill="#002060" fill-rule="evenodd"/><text font-family="Calibri,Calibri_MSFontService,sans-serif" font-weight="400" font-size="83" transform="matrix(1 0 0 1 610.5 1450)">Playground</text><path d="M895.5 1107C895.5 1097.89 902.887 1090.5 912 1090.5 921.113 1090.5 928.5 1097.89 928.5 1107 928.5 1116.11 921.113 1123.5 912 1123.5 902.887 1123.5 895.5 1116.11 895.5 1107Z" stroke="#002060" stroke-width="9.16667" stroke-linejoin="round" stroke-miterlimit="10" fill="#002060" fill-rule="evenodd"/><text font-family="Calibri,Calibri_MSFontService,sans-serif" font-weight="400" font-size="83" transform="matrix(1 0 0 1 764.72 1067)">Bathroom</text></g></svg>