<svg width="2428" height="696" xmlns="http://www.w3.org/2000/svg" xmlns:xlink="http://www.w3.org/1999/xlink" xml:space="preserve" overflow="hidden"><g transform="translate(-222 -932)"><path d="M225.073 935 830.073 935 830.073 1237.5 225.073 1237.5Z" fill="#000000" fill-rule="evenodd" fill-opacity="0.0705882"/><path d="M830.073 935 2645.07 935 2645.07 1237.5 830.073 1237.5Z" fill="#FFFFFF" fill-rule="evenodd"/><path d="M225.073 1237.5 830.073 1237.5 830.073 1622.5 225.073 1622.5Z" fill="#000000" fill-rule="evenodd" fill-opacity="0.0705882"/><path d="M830.073 1237.5 2645.07 1237.5 2645.07 1622.5 830.073 1622.5Z" fill="#FFFFFF" fill-rule="evenodd"/><path d="M830.073 932.708 830.073 1624.79" stroke="#000000" stroke-width="4.58333" stroke-linejoin="round" stroke-miterlimit="10" fill="none" fill-rule="evenodd"/><path d="M222.781 1237.5 2647.36 1237.5" stroke="#000000" stroke-width="4.58333" stroke-linejoin="round" stroke-miterlimit="10" fill="none" fill-rule="evenodd"/><path d="M225.073 932.708 225.073 1624.79" stroke="#000000" stroke-width="4.58333" stroke-linejoin="round" stroke-miterlimit="10" fill="none" fill-rule="evenodd"/><path d="M2645.07 932.708 2645.07 1624.79" stroke="#000000" stroke-width="4.58333" stroke-linejoin="round" stroke-miterlimit="10" fill="none" fill-rule="evenodd"/><path d="M222.781 935 2647.36 935" stroke="#000000" stroke-width="4.58333" stroke-linejoin="round" stroke-miterlimit="10" fill="none" fill-rule="evenodd"/><path d="M222.781 1622.5 2647.36 1622.5" stroke="#000000" stroke-width="4.58333" stroke-linejoin="round" stroke-miterlimit="10" fill="none" fill-rule="evenodd"/><text font-family="Calibri,Calibri_MSFontService,sans-serif" font-weight="700" font-size="92" transform="matrix(1 0 0 1 377.755 1062)">Original </text><text font-family="Calibri,Calibri_MSFontService,sans-serif" font-weight="700" font-size="92" transform="matrix(1 0 0 1 410.915 1172)">Image</text><text font-family="Calibri,Calibri_MSFontService,sans-serif" font-weight="700" font-size="92" transform="matrix(1 0 0 1 319.615 1406)">Completed </text><text font-family="Calibri,Calibri_MSFontService,sans-serif" font-weight="700" font-size="92" transform="matrix(1 0 0 1 284.026 1516)">Construction</text><path d="M2117.82 1080.16 1266.98 1077.88 1267.02 1064.13 2117.85 1066.41ZM2117.89 1052.66C2129.28 1052.69 2138.49 1061.95 2138.46 1073.34 2138.43 1084.73 2129.17 1093.94 2117.78 1093.91 2106.39 1093.88 2097.18 1084.62 2097.21 1073.23 2097.24 1061.84 2106.5 1052.63 2117.89 1052.66ZM1266.94 1091.62C1255.55 1091.59 1246.34 1082.34 1246.38 1070.94 1246.41 1059.55 1255.66 1050.34 1267.06 1050.38 1278.45 1050.41 1287.66 1059.66 1287.62 1071.06 1287.59 1082.45 1278.34 1091.66 1266.94 1091.62Z"/><path d="M1269.91 1116.31 1247.66 1155.69 1272.1 1155.69 1271.04 1135.56C1270.91 1132.81 1270.81 1129.37 1270.73 1125.25 1270.64 1121.12 1270.6 1118.14 1270.6 1116.31ZM1270.29 1103.12 1279.73 1103.12 1284.23 1172.81C1284.43 1176.1 1284.81 1178.68 1285.35 1180.53 1285.89 1182.38 1286.63 1183.76 1287.57 1184.65 1288.51 1185.55 1289.87 1186.12 1291.66 1186.37L1290.98 1189.44 1264.98 1189.44 1265.66 1186.37C1268.12 1186.16 1269.95 1185.21 1271.16 1183.5 1272.37 1181.79 1272.98 1178.79 1272.98 1174.5 1272.98 1172.87 1272.91 1171.1 1272.79 1169.19L1272.35 1161.12 1244.85 1161.12 1241.41 1167.25C1239.79 1170.12 1238.6 1172.59 1237.85 1174.65 1237.1 1176.72 1236.73 1178.54 1236.73 1180.12 1236.73 1183.62 1238.83 1185.71 1243.04 1186.37L1242.35 1189.44 1216.79 1189.44 1217.48 1186.37C1218.77 1186.21 1219.99 1185.7 1221.13 1184.84 1222.28 1183.99 1223.5 1182.7 1224.79 1180.97 1226.08 1179.24 1227.89 1176.37 1230.23 1172.37Z" fill-rule="evenodd"/><text fill="#000000" fill-opacity="0" font-family="Arial,Arial_MSFontService,sans-serif" font-size="86.3125" x="1216.79" y="1178.65">ğ´</text><path d="M2105.6 1143.3 2099.96 1179.51C2102.51 1179.52 2105.63 1179.42 2109.33 1179.21 2115.66 1178.83 2120.37 1177.84 2123.47 1176.22 2126.56 1174.59 2129.15 1171.89 2131.22 1168.09 2133.29 1164.3 2134.17 1159.72 2133.86 1154.35 2133.61 1150.15 2132.04 1147.07 2129.15 1145.11 2126.26 1143.15 2122.07 1142.33 2116.58 1142.66ZM2121.82 1104.03C2118.2 1104.24 2114.84 1104.5 2111.73 1104.81L2106.59 1137.73 2115.38 1137.22C2120.29 1136.93 2124.17 1136.3 2127.01 1135.34 2129.86 1134.38 2132.32 1132.82 2134.41 1130.65 2136.49 1128.48 2137.96 1126.15 2138.82 1123.66 2139.67 1121.17 2140.01 1118.32 2139.82 1115.12 2139.71 1113.33 2139.3 1111.68 2138.59 1110.15 2137.87 1108.63 2136.72 1107.36 2135.14 1106.35 2133.56 1105.34 2131.76 1104.65 2129.76 1104.29 2127.75 1103.92 2125.11 1103.84 2121.82 1104.03ZM2093.49 1100.19 2124.37 1098.37C2130.61 1098.01 2135.65 1098.37 2139.49 1099.46 2143.33 1100.55 2146.21 1102.31 2148.13 1104.74 2150.05 1107.17 2151.12 1110.3 2151.34 1114.13 2151.66 1119.58 2150.28 1124.43 2147.19 1128.68 2144.1 1132.93 2139.33 1136.33 2132.89 1138.88L2132.8 1139.57C2136.76 1140.89 2139.86 1142.91 2142.11 1145.63 2144.36 1148.36 2145.59 1151.53 2145.8 1155.15 2146.12 1160.68 2145.13 1165.49 2142.83 1169.57 2140.52 1173.65 2136.9 1177.04 2131.97 1179.75 2127.04 1182.46 2119.68 1184.11 2109.91 1184.68L2082.14 1186.31 2082.65 1183.21C2084.22 1182.87 2085.38 1182.4 2086.13 1181.79 2086.89 1181.18 2087.51 1180.36 2087.99 1179.33 2088.48 1178.3 2088.9 1177.06 2089.28 1175.59 2089.65 1174.13 2090.17 1171.32 2090.85 1167.14L2098.63 1118.48C2099.3 1114.27 2099.57 1110.95 2099.42 1108.54 2099.3 1106.5 2098.74 1105.12 2097.74 1104.38 2096.74 1103.65 2095.15 1103.28 2092.98 1103.28Z" fill-rule="evenodd"/><text fill="#000000" fill-opacity="0" font-family="Arial,Arial_MSFontService,sans-serif" font-size="88.0784" x="2082.14" y="1175.3">ğµ</text><path d="M2.06911e-06-6.875 1199.13-6.87464 1199.13 6.87536-2.06911e-06 6.875ZM-6.20733e-06 20.625C-11.3909 20.625-20.625 11.3909-20.625-6.20733e-06-20.625-11.3909-11.3909-20.625 6.20733e-06-20.625 11.3909-20.625 20.625-11.3909 20.625 6.20733e-06 20.625 11.3909 11.3909 20.625-6.20733e-06 20.625ZM1199.13-20.6246C1210.52-20.6246 1219.76-11.3905 1219.76 0.0003671 1219.76 11.3912 1210.52 20.6254 1199.13 20.6254 1187.74 20.6254 1178.51 11.3912 1178.51 0.000354685 1178.51-11.3905 1187.74-20.6246 1199.13-20.6246Z" transform="matrix(-1 0 0 1 2320.13 1420)"/><path d="M1124.7 1452.36C1128.49 1452.36 1132 1452.59 1135.23 1453.05 1138.46 1453.51 1142.05 1454.34 1146.01 1455.55L1142.26 1472.49 1136.26 1472.49C1135.93 1467.36 1134.82 1463.66 1132.92 1461.39 1131.02 1459.12 1127.97 1457.99 1123.76 1457.99 1118.01 1457.99 1112.67 1460.86 1107.73 1466.61 1102.79 1472.36 1098.89 1479.96 1096.01 1489.39 1093.14 1498.83 1091.7 1507.59 1091.7 1515.67 1091.7 1522.01 1092.83 1526.67 1095.08 1529.67 1097.33 1532.67 1100.78 1534.17 1105.45 1534.17 1108.58 1534.17 1111.3 1533.71 1113.64 1532.77 1115.97 1531.83 1118.16 1530.25 1120.2 1528.02 1122.24 1525.79 1124.26 1522.67 1126.26 1518.67L1132.26 1518.67 1128.45 1536.42C1120.66 1538.59 1112.49 1539.67 1103.95 1539.67 1096.12 1539.67 1090.16 1537.42 1086.08 1532.92 1081.99 1528.42 1079.95 1521.84 1079.95 1513.17 1079.95 1507.05 1081.04 1499.99 1083.23 1491.99 1085.42 1483.99 1088.51 1476.97 1092.51 1470.92 1096.51 1464.88 1101.24 1460.28 1106.7 1457.11 1112.16 1453.95 1118.16 1452.36 1124.7 1452.36Z" fill-rule="evenodd"/><text fill="#000000" fill-opacity="0" font-family="Arial,Arial_MSFontService,sans-serif" font-size="87.3125" x="1079.95" y="1528.76">ğ¶</text><path d="M2002.29 1456.78C2000.46 1456.89 1998.48 1457.06 1996.37 1457.31L1984.54 1532.07C1985.76 1532.13 1988.07 1532.05 1991.48 1531.85 1998.22 1531.46 2003.87 1529.95 2008.43 1527.32 2012.99 1524.69 2016.83 1520.77 2019.95 1515.56 2023.07 1510.35 2025.27 1504.92 2026.57 1499.27 2027.86 1493.62 2028.33 1487.72 2027.97 1481.56 2027.46 1472.87 2025.05 1466.45 2020.73 1462.3 2016.42 1458.15 2010.27 1456.31 2002.29 1456.78ZM1978.13 1452.75 2001.78 1451.36C2008.06 1450.99 2013.18 1451.17 2017.15 1451.9 2021.12 1452.62 2024.87 1454.14 2028.4 1456.43 2031.94 1458.73 2034.68 1461.9 2036.63 1465.94 2038.58 1469.97 2039.72 1474.82 2040.05 1480.48 2040.38 1486.09 2040.05 1491.5 2039.06 1496.69 2038.07 1501.88 2036.5 1506.7 2034.34 1511.15 2032.18 1515.59 2029.51 1519.51 2026.33 1522.89 2023.15 1526.27 2020.02 1528.9 2016.96 1530.79 2013.9 1532.69 2010.44 1534.17 2006.58 1535.25 2002.72 1536.34 1998.19 1537.03 1992.99 1537.34L1966.79 1538.88 1967.29 1535.78C1968.86 1535.44 1970.02 1534.96 1970.78 1534.35 1971.54 1533.74 1972.16 1532.93 1972.64 1531.9 1973.12 1530.87 1973.55 1529.62 1973.92 1528.16 1974.3 1526.7 1974.82 1523.88 1975.49 1519.71L1983.28 1471.04C1983.95 1466.83 1984.21 1463.45 1984.06 1460.92 1983.94 1458.96 1983.38 1457.63 1982.35 1456.92 1981.33 1456.2 1979.75 1455.85 1977.63 1455.85Z" fill-rule="evenodd"/><text fill="#000000" fill-opacity="0" font-family="Arial,Arial_MSFontService,sans-serif" font-size="87.7012" x="1966.79" y="1527.91">ğ·</text><path d="M2298.93 1452.75 2356.33 1449.38 2353.15 1468.79 2347.16 1469.14C2346.78 1465.53 2346.31 1462.82 2345.75 1461.02 2345.18 1459.22 2344.56 1457.99 2343.87 1457.34 2343.19 1456.69 2342.39 1456.28 2341.48 1456.1 2340.57 1455.93 2339.29 1455.89 2337.62 1455.99L2317.28 1457.18 2312.09 1490.29 2324.01 1489.59C2326.96 1489.42 2329.18 1488.59 2330.66 1487.11 2332.13 1485.62 2333.57 1483.23 2334.96 1479.93L2340.64 1479.6 2336.43 1503.89 2331.13 1504.2C2330.93 1500.87 2330.59 1498.63 2330.11 1497.47 2329.62 1496.31 2328.96 1495.59 2328.13 1495.33 2327.3 1495.07 2325.83 1495 2323.71 1495.12L2311.23 1495.85 2305.36 1532.32 2323.83 1531.24C2326.28 1531.09 2328.21 1530.73 2329.61 1530.15 2331.02 1529.56 2332.32 1528.67 2333.53 1527.47 2334.73 1526.28 2335.91 1524.63 2337.06 1522.54 2338.21 1520.45 2339.55 1517.63 2341.1 1514.07L2347.15 1513.71 2342.93 1535.63 2287.59 1538.88 2288.09 1535.78C2289.66 1535.44 2290.82 1534.96 2291.58 1534.35 2292.33 1533.74 2292.95 1532.93 2293.44 1531.9 2293.92 1530.87 2294.35 1529.62 2294.72 1528.16 2295.09 1526.7 2295.62 1523.88 2296.29 1519.71L2304.07 1471.04C2304.74 1466.83 2305.01 1463.45 2304.86 1460.92 2304.74 1458.96 2304.17 1457.63 2303.15 1456.92 2302.13 1456.2 2300.55 1455.85 2298.42 1455.85Z" fill-rule="evenodd"/><text fill="#000000" fill-opacity="0" font-family="Arial,Arial_MSFontService,sans-serif" font-size="89.4974" x="2287.59" y="1527.69">ğ¸</text><path d="M1956.5 1418C1956.5 1408.89 1962.54 1401.5 1970 1401.5 1977.46 1401.5 1983.5 1408.89 1983.5 1418 1983.5 1427.11 1977.46 1434.5 1970 1434.5 1962.54 1434.5 1956.5 1427.11 1956.5 1418Z" stroke="#002060" stroke-width="9.16667" stroke-linejoin="round" stroke-miterlimit="10" fill="#002060" fill-rule="evenodd"/><path d="M1964.92 1319.89C1971.2 1378.78 1963.24 1438.07 1941.44 1494.74" stroke="#000000" stroke-width="10.3125" stroke-linejoin="round" stroke-miterlimit="10" fill="none" fill-rule="evenodd"/></g></svg>